<!DOCTYPE svg PUBLIC "-//W3C//DTD SVG 20010904//EN" "http://www.w3.org/TR/2001/REC-SVG-20010904/DTD/svg10.dtd">
<svg version="1.0" xmlns="http://www.w3.org/2000/svg" width="176px" height="251px" viewBox="0 0 1760 2510" preserveAspectRatio="xMidYMid meet">
<g id="layer101" fill="#292929" stroke="none">
 <path d="M710 2499 c-284 -32 -527 -144 -641 -294 -92 -122 -92 -282 -1 -408 73 -101 243 -203 424 -254 l98 -27 -173 -175 c-186 -190 -215 -231 -259 -371 -20 -65 -23 -95 -22 -225 0 -135 3 -158 27 -230 82 -247 296 -443 544 -499 91 -20 249 -21 345 -1 40 9 115 36 168 62 81 40 109 61 191 142 82 82 103 110 143 191 56 115 76 201 76 340 0 139 -20 225 -76 340 -44 88 -59 107 -212 262 l-164 167 43 11 c207 52 392 157 472 267 90 126 90 287 -2 408 -163 215 -578 340 -981 294z m474 -94 c201 -52 366 -158 430 -275 24 -43 28 -62 28 -130 0 -114 -33 -170 -162 -274 -42 -34 -192 -102 -278 -127 l-83 -23 -110 110 -109 109 47 6 c262 34 369 208 202 329 -133 96 -405 96 -538 0 -112 -82 -107 -188 13 -266 51 -34 151 -64 213 -64 l38 0 -110 -110 c-60 -60 -117 -110 -126 -110 -59 0 -298 97 -359 146 -71 57 -109 99 -134 144 -24 43 -28 62 -28 130 0 68 4 87 28 130 42 77 128 151 236 203 175 85 301 108 548 102 125 -3 174 -9 254 -30z"/>
 </g>
<g id="layer102" fill="#621f1f" stroke="none">
 <path d="M705 2490 c-195 -23 -412 -106 -537 -205 -183 -146 -205 -363 -53 -520 92 -94 253 -179 419 -221 l67 -17 -174 -176 c-189 -191 -226 -243 -269 -381 -20 -65 -23 -95 -22 -225 0 -134 3 -158 26 -228 75 -223 261 -410 485 -485 71 -24 92 -26 233 -26 142 0 162 2 235 27 198 66 369 221 455 411 81 177 81 434 1 610 -46 103 -84 151 -249 318 l-155 157 44 11 c369 95 576 299 529 524 -38 184 -279 351 -592 411 -102 19 -335 27 -443 15z m426 -70 c236 -48 432 -168 494 -302 46 -98 31 -210 -41 -304 -61 -79 -231 -175 -382 -216 l-83 -22 -117 117 -117 117 -117 -117 -118 -118 -88 23 c-153 39 -324 135 -386 216 -71 94 -87 206 -41 304 62 133 254 252 487 301 133 28 374 28 509 1z"/>
 </g>
<g id="layer103" fill="#a10303" stroke="none">
 <path d="M755 2480 c-328 -28 -608 -170 -689 -350 -55 -121 -31 -251 65 -354 84 -92 250 -181 412 -222 l68 -17 -174 -176 c-191 -194 -232 -252 -276 -396 -20 -67 -24 -102 -25 -210 -1 -154 14 -219 76 -345 34 -69 61 -104 138 -181 105 -106 182 -155 308 -197 67 -22 95 -26 217 -26 154 -1 228 15 346 74 124 63 266 205 329 329 58 116 75 193 75 341 0 114 -4 147 -23 210 -51 160 -99 229 -310 442 l-135 136 44 12 c402 103 602 338 493 580 -103 230 -520 385 -939 350z m360 -54 c146 -27 265 -74 370 -146 101 -69 175 -188 175 -280 0 -157 -168 -316 -418 -394 -46 -14 -93 -26 -105 -26 -14 0 -60 39 -137 115 l-115 115 -119 -119 -118 -119 -62 15 c-222 51 -415 182 -465 316 -26 72 -27 121 0 192 48 128 215 251 419 308 48 13 97 22 235 41 54 8 258 -3 340 -18z"/>
 </g>
<g id="layer104" fill="#f80000" stroke="none">
 <path d="M569 1493 c-279 -282 -308 -315 -347 -389 -60 -117 -83 -213 -83 -354 0 -219 63 -371 216 -525 152 -153 310 -218 525 -217 129 0 185 10 280 49 224 91 402 301 451 530 16 75 15 252 -1 327 -16 79 -54 167 -105 244 -25 38 -154 176 -330 352 -159 160 -292 290 -295 290 -3 0 -143 -138 -311 -307z"/>
 </g>
<g id="layer105" fill="#fefefe" stroke="none">
 <path d="M773 1082 c-100 -36 -172 -102 -215 -199 -33 -73 -31 -198 4 -275 34 -73 103 -142 176 -176 83 -38 203 -38 284 0 73 34 142 103 176 176 23 48 27 71 27 142 0 99 -26 168 -90 239 -84 93 -246 135 -362 93z"/>
 </g>

</svg>