<!DOCTYPE svg PUBLIC "-//W3C//DTD SVG 20010904//EN" "http://www.w3.org/TR/2001/REC-SVG-20010904/DTD/svg10.dtd">
<svg version="1.0" xmlns="http://www.w3.org/2000/svg" width="1280px" height="872px" viewBox="0 0 12800 8720" preserveAspectRatio="xMidYMid meet">
<g id="layer101" fill="#9aba6a" stroke="none">
 <path d="M2001 7238 c-24 -78 -1701 -5747 -1701 -5752 0 -3 170 -6 379 -6 l378 0 42 142 c660 2245 990 3362 990 3356 1 -3 156 -532 346 -1174 l344 -1168 -169 -569 c-94 -313 -170 -573 -170 -578 0 -5 160 -9 378 -9 l377 0 514 1750 c283 962 515 1749 516 1747 1 -1 233 -788 516 -1749 l513 -1748 1403 0 1403 0 0 185 0 185 -520 896 c-286 493 -520 899 -520 903 0 3 29 17 65 30 297 106 557 309 728 566 238 360 343 799 316 1317 -18 333 -80 580 -215 853 -88 178 -175 304 -304 438 -205 214 -407 327 -695 389 -81 17 -134 21 -280 21 -259 0 -412 -35 -625 -144 -255 -131 -505 -394 -659 -694 -43 -83 -116 -255 -135 -321 -6 -19 18 -31 289 -144 163 -67 298 -120 300 -119 1 2 17 37 33 76 107 252 285 459 479 557 138 69 334 89 463 47 169 -54 311 -202 425 -444 84 -178 124 -359 132 -604 22 -640 -213 -1039 -682 -1158 -120 -31 -270 -45 -472 -45 l-153 0 0 -173 0 -173 471 -815 c259 -448 481 -833 495 -856 l25 -43 -595 0 -595 0 -34 58 c-26 45 -184 566 -761 2517 -401 1353 -731 2466 -733 2473 -3 7 -22 12 -44 12 l-38 0 -25 -82 c-14 -46 -253 -846 -531 -1778 -279 -932 -508 -1696 -509 -1697 -1 -2 -231 763 -511 1700 -279 936 -519 1737 -532 1780 l-24 77 -39 0 c-35 0 -39 -3 -49 -32z"/>
 <path d="M9638 7225 c-459 -75 -882 -459 -1188 -1080 -49 -99 -113 -250 -143 -335 -66 -187 -97 -290 -89 -290 4 0 48 71 97 157 192 332 303 478 495 648 129 114 211 171 335 233 178 89 290 118 485 128 147 8 258 -8 396 -57 172 -60 279 -116 404 -213 240 -184 409 -383 594 -699 32 -54 59 -97 61 -95 2 2 29 133 59 291 l55 287 -52 95 c-222 404 -581 749 -906 871 -47 18 -120 40 -161 49 -104 23 -333 28 -442 10z"/>
 <path d="M8687 4723 c-143 -341 -207 -684 -207 -1103 0 -528 83 -928 276 -1329 333 -692 853 -919 1354 -591 162 107 295 254 435 482 32 51 59 95 61 97 1 2 97 -184 211 -413 114 -229 210 -416 213 -416 3 0 33 168 67 372 l60 373 -214 413 c-119 226 -217 412 -219 412 -1 0 -27 -42 -58 -93 -172 -294 -403 -505 -642 -587 -115 -40 -290 -36 -422 10 -245 86 -516 371 -663 696 -74 167 -182 550 -213 759 -42 278 -41 683 0 924 9 51 14 95 11 97 -3 3 -25 -44 -50 -103z"/>
 <path d="M11790 2561 c-166 -53 -298 -179 -357 -341 -24 -65 -28 -89 -28 -185 0 -81 5 -125 19 -165 58 -173 194 -310 355 -361 77 -24 226 -29 306 -10 131 31 275 141 343 263 100 176 91 411 -21 578 -71 106 -192 192 -318 225 -76 21 -230 18 -299 -4z m275 -76 c179 -47 317 -199 346 -381 37 -227 -113 -459 -335 -519 -100 -27 -231 -18 -319 23 -184 85 -302 301 -269 494 47 275 313 451 577 383z"/>
 <path d="M11720 2024 l0 -316 183 4 c167 3 186 5 230 27 71 34 103 96 90 173 -10 67 -44 104 -131 144 -2 1 26 61 62 133 36 72 66 135 66 141 0 6 -29 10 -69 10 l-68 0 -63 -135 -64 -135 -53 0 -53 0 0 135 0 135 -65 0 -65 0 0 -316z m336 -60 c33 -24 44 -57 32 -100 -11 -42 -52 -61 -155 -69 l-83 -8 0 103 0 102 89 -4 c71 -2 95 -7 117 -24z"/>
 </g>

</svg>